<svg width="16" height="16" viewBox="0 0 16 16" fill="none" xmlns="http://www.w3.org/2000/svg">
<path d="M7.99996 8.66667C8.36815 8.66667 8.66663 8.36819 8.66663 8C8.66663 7.63181 8.36815 7.33334 7.99996 7.33334C7.63177 7.33334 7.33329 7.63181 7.33329 8C7.33329 8.36819 7.63177 8.66667 7.99996 8.66667Z" stroke="#676879" stroke-width="1.5" stroke-linecap="round" stroke-linejoin="round"/>
<path d="M12.6666 8.66667C13.0348 8.66667 13.3333 8.36819 13.3333 8C13.3333 7.63181 13.0348 7.33334 12.6666 7.33334C12.2984 7.33334 12 7.63181 12 8C12 8.36819 12.2984 8.66667 12.6666 8.66667Z" stroke="#676879" stroke-width="1.5" stroke-linecap="round" stroke-linejoin="round"/>
<path d="M3.33329 8.66667C3.70148 8.66667 3.99996 8.36819 3.99996 8C3.99996 7.63181 3.70148 7.33334 3.33329 7.33334C2.9651 7.33334 2.66663 7.63181 2.66663 8C2.66663 8.36819 2.9651 8.66667 3.33329 8.66667Z" stroke="#676879" stroke-width="1.5" stroke-linecap="round" stroke-linejoin="round"/>
</svg>
