<svg width="16" height="16" viewBox="0 0 16 16" fill="none" xmlns="http://www.w3.org/2000/svg">
<path d="M1.61341 8.47547C1.52263 8.33167 1.47723 8.2598 1.45181 8.14893C1.43273 8.06567 1.43273 7.93433 1.45181 7.85107C1.47723 7.7402 1.52263 7.66833 1.61341 7.52453C2.36369 6.33656 4.59694 3.33333 8.00027 3.33333C11.4036 3.33333 13.6369 6.33656 14.3871 7.52453C14.4779 7.66833 14.5233 7.7402 14.5487 7.85107C14.5678 7.93433 14.5678 8.06567 14.5487 8.14893C14.5233 8.2598 14.4779 8.33167 14.3871 8.47547C13.6369 9.66347 11.4036 12.6667 8.00027 12.6667C4.59694 12.6667 2.36369 9.66347 1.61341 8.47547Z" stroke="#0073EA" stroke-width="1.5" stroke-linecap="round" stroke-linejoin="round"/>
<path d="M8.00024 10C9.10484 10 10.0002 9.1046 10.0002 8C10.0002 6.8954 9.10484 6 8.00024 6C6.89564 6 6.00024 6.8954 6.00024 8C6.00024 9.1046 6.89564 10 8.00024 10Z" stroke="#676879" stroke-width="1.5" stroke-linecap="round" stroke-linejoin="round"/>
</svg>
