<svg width="16" height="16" viewBox="0 0 16 16" fill="none" xmlns="http://www.w3.org/2000/svg">
<path d="M3.33325 3.32636C3.33325 2.67892 3.33325 2.3552 3.46825 2.17675C3.58585 2.02129 3.7656 1.92509 3.96019 1.91347C4.18355 1.90013 4.45289 2.07971 4.9916 2.43884L12.002 7.11242C12.4471 7.40915 12.6697 7.55755 12.7472 7.74455C12.8151 7.90809 12.8151 8.09182 12.7472 8.25535C12.6697 8.44235 12.4471 8.59069 12.002 8.88749L4.9916 13.561C4.45289 13.9202 4.18355 14.0998 3.96019 14.0864C3.7656 14.0748 3.58585 13.9786 3.46825 13.8232C3.33325 13.6447 3.33325 13.321 3.33325 12.6736V3.32636Z" stroke="#0073EA" stroke-width="1.5" stroke-linecap="round" stroke-linejoin="round"/>
</svg>
