<svg width="16" height="16" viewBox="0 0 16 16" fill="none" xmlns="http://www.w3.org/2000/svg">
<path d="M8 0.5C12.1421 0.5 15.5 3.85786 15.5 8C15.5 12.1421 12.1421 15.5 8 15.5C3.85786 15.5 0.5 12.1421 0.5 8C0.5 3.85786 3.85786 0.5 8 0.5Z" fill="#0073EA"/>
<path d="M8 0.5C12.1421 0.5 15.5 3.85786 15.5 8C15.5 12.1421 12.1421 15.5 8 15.5C3.85786 15.5 0.5 12.1421 0.5 8C0.5 3.85786 3.85786 0.5 8 0.5Z" stroke="#0073EA"/>
<path d="M6.57091 9.55725L11.3663 4.76187C11.5214 4.60673 11.7053 4.52916 11.9179 4.52916C12.1305 4.52916 12.3144 4.60673 12.4696 4.76187C12.6247 4.917 12.7023 5.10088 12.7023 5.31351C12.7023 5.52612 12.6247 5.71 12.4696 5.86514L7.11938 11.2153C6.96424 11.3705 6.78142 11.448 6.57091 11.448C6.36041 11.448 6.17759 11.3705 6.02245 11.2153L3.53059 8.72347C3.37547 8.56833 3.29896 8.38446 3.30107 8.17184C3.30318 7.95922 3.3818 7.77534 3.53694 7.6202C3.69208 7.46506 3.87596 7.38749 4.08858 7.38749C4.3012 7.38749 4.48507 7.46506 4.64021 7.6202L6.57091 9.55725Z" fill="white"/>
</svg>
